# xmcd
#
# Track frame offsets: 
#        150
#        20790
#        39408
#
# Disc length: 802 seconds
#
# Revision: 0
# Processed by: cddbd v1.5.2PL0 Copyright (c) Steve Scherf et al.
# Submitted via: ExactAudioCopy v1.0b3
#
DISCID=1e032003
DTITLE=Fonogenico - Reason
DYEAR=2006
DGENRE=JPop
TTITLE0=Reason
TTITLE1=lovers
TTITLE2=ノーサイド -additional track-
EXTD=
EXTT0=
EXTT1=
EXTT2=
PLAYORDER=
